<svg xmlns="http://www.w3.org/2000/svg" fill="#fff" width="20" height="20" viewBox="0 0 46.243 46.243" xml:space="preserve"><path d="M36.012.001h-25.78C4.581.001.001 4.562.001 10.212v13.012a2.91 2.91 0 0 0 2.91 2.91h15.586v7.236c0 .889.529 1.691 1.351 2.029.822.34 1.765.15 2.392-.479l9.708-9.758a2.925 2.925 0 0 0 0-4.123l-9.71-9.756a2.182 2.182 0 0 0-2.387-.482 2.19 2.19 0 0 0-1.352 2.031v7.276H6.026v-9.897c0-2.316 1.89-4.186 4.206-4.186h25.78c2.316 0 4.207 1.87 4.207 4.186v25.78c0 2.314-1.891 4.226-4.207 4.226h-25.78c-2.316 0-4.206-1.909-4.206-4.226v-.819a3.013 3.013 0 0 0-6.026 0v.819c0 5.65 4.581 10.251 10.231 10.251h25.781c5.65 0 10.231-4.601 10.231-10.251v-25.78c0-5.649-4.581-10.21-10.231-10.21z"/></svg>